<svg xmlns="http://www.w3.org/2000/svg" viewBox="0 0 200 200">
<defs><linearGradient id="p" x1="1" x2="0" y2="1"><stop stop-color="#d99a62"/><stop offset=".45" stop-color="#ae673f"/><stop offset="1" stop-color="#704029"/></linearGradient><filter id="s"><feDropShadow dx="0" dy="4" stdDeviation="3" flood-color="#173424" flood-opacity=".58"/></filter></defs>
<g filter="url(#s)">
 <path d="M104 21Q104 12 113 12H178Q188 12 188 22V178Q188 188 178 188H22Q12 188 12 178V114Q12 105 21 105H104Z" fill="url(#p)" stroke="#e6ad70" stroke-width="4" stroke-linejoin="round"/>
 <path d="M100 8H192V192H8V101H100Z" fill="none" stroke="#efc187" stroke-width="5" stroke-linejoin="round"/>
 <path d="M111 17H181V181H18V111H111Z" fill="#314e2f" opacity=".95"/>
 <g fill="#72a059" stroke="#31522e"><ellipse cx="133" cy="11" rx="8" ry="18" transform="rotate(-24 133 11)"/><ellipse cx="163" cy="12" rx="8" ry="18" transform="rotate(25 163 12)"/><ellipse cx="159" cy="98" rx="8" ry="18" transform="rotate(24 159 98)"/><ellipse cx="87" cy="105" rx="8" ry="18" transform="rotate(-24 87 105)"/><ellipse cx="41" cy="105" rx="8" ry="18" transform="rotate(24 41 105)"/></g>
 <path d="M153 30v62M27 112h72" stroke="#e5ac69" stroke-width="3" opacity=".65"/>
</g></svg>