<svg xmlns="http://www.w3.org/2000/svg" data-shape="L3-BL" data-missing="TR" data-role="celestial-codex" viewBox="0 0 200 200"><defs>
<linearGradient id="gold" x1="0" x2="1"><stop stop-color="#633307"/><stop offset=".18" stop-color="#dc922d"/><stop offset=".43" stop-color="#fff1a7"/><stop offset=".68" stop-color="#d58b28"/><stop offset="1" stop-color="#5b2c06"/></linearGradient>
<linearGradient id="shine" x1="0" y1="0" x2="1" y2="1"><stop stop-color="#fff" stop-opacity=".2"/><stop offset=".45" stop-color="#fff" stop-opacity=".03"/><stop offset="1" stop-color="#000" stop-opacity=".24"/></linearGradient>
<filter id="s" x="-20%" y="-20%" width="150%" height="170%"><feDropShadow dx="0" dy="5" stdDeviation="4" flood-color="#000" flood-opacity=".68"/></filter>
<linearGradient id="leather" x1="0" y1="0" x2="1" y2="1"><stop stop-color="#ffffff" stop-opacity=".16"/><stop offset=".22" stop-color="#000" stop-opacity=".03"/><stop offset=".62" stop-color="#fff0b0" stop-opacity=".08"/><stop offset="1" stop-color="#000" stop-opacity=".28"/></linearGradient><pattern id="grain" width="18" height="18" patternUnits="userSpaceOnUse"><path d="M1 4c5-3 9 4 16 0M-2 13c6-4 12 4 20 0" fill="none" stroke="#f6df9b" stroke-opacity=".07" stroke-width="1"/><circle cx="5" cy="9" r=".8" fill="#120b08" opacity=".18"/></pattern></defs>
 <clipPath id="clip"><path d="M18 5H89Q102 5 102 18V92Q102 102 112 102H183Q195 102 195 114V182Q195 195 182 195H18Q5 195 5 182V18Q5 5 18 5Z"/></clipPath>
 <path d="M18 5H89Q102 5 102 18V92Q102 102 112 102H183Q195 102 195 114V182Q195 195 182 195H18Q5 195 5 182V18Q5 5 18 5Z" fill="#173d79" stroke="url(#gold)" stroke-width="7" stroke-linejoin="round" filter="url(#s)"/>
 <g clip-path="url(#clip)">
  <rect x="8" y="8" width="184" height="184" fill="url(#shine)"/>
  <path d="M22 8V192M178 8V192M8 22H192M8 178H192" stroke="#f2c968" stroke-width="5" opacity=".56"/>
  <g fill="#e4aa3f"><path d="M7 7h27L21 20 7 27Z"/><path d="M193 7h-27l13 13 14 7Z"/><path d="M7 193h27l-13-13-14-7Z"/><path d="M193 193h-27l13-13 14-7Z"/></g>
 </g>
 <g transform="translate(52 148)" fill="none" stroke="#f7d472" stroke-width="4">
  <circle r="29"/><ellipse rx="38" ry="14" transform="rotate(-25)"/>
  <path d="M0-39l8 27 27 8-27 8-8 27-8-27-27-8 27-8Z"/>
 </g>
 <circle cx="52" cy="148" r="5" fill="#fff0a0"/>
 <path d="M18 5H89Q102 5 102 18V92Q102 102 112 102H183Q195 102 195 114V182Q195 195 182 195H18Q5 195 5 182V18Q5 5 18 5Z" fill="none" stroke="#fff3b5" stroke-opacity=".24" stroke-width="2" stroke-linejoin="round"/>
 <g pointer-events="none"><rect x="14" y="14" width="172" height="172" rx="14" fill="url(#leather)" opacity=".48"/><rect x="18" y="18" width="164" height="164" rx="10" fill="url(#grain)" opacity=".8"/><path d="M26 36H174M26 164H174" stroke="#f8dda0" stroke-opacity=".24" stroke-width="1.5" stroke-dasharray="3 5"/></g></svg>