<svg xmlns="http://www.w3.org/2000/svg" data-shape="2V" data-role="celestial-codex" viewBox="0 0 100 200"><defs>
<linearGradient id="gold" x1="0" x2="1"><stop stop-color="#633307"/><stop offset=".18" stop-color="#dc922d"/><stop offset=".43" stop-color="#fff1a7"/><stop offset=".68" stop-color="#d58b28"/><stop offset="1" stop-color="#5b2c06"/></linearGradient>
<linearGradient id="shine" x1="0" y1="0" x2="1" y2="1"><stop stop-color="#fff" stop-opacity=".2"/><stop offset=".45" stop-color="#fff" stop-opacity=".03"/><stop offset="1" stop-color="#000" stop-opacity=".24"/></linearGradient>
<filter id="s" x="-20%" y="-20%" width="150%" height="170%"><feDropShadow dx="0" dy="5" stdDeviation="4" flood-color="#000" flood-opacity=".68"/></filter>
</defs>
 <rect x="5" y="5" width="90" height="190" rx="13" fill="#8a2638" stroke="url(#gold)" stroke-width="7" filter="url(#s)"/>
 <rect x="13" y="13" width="74" height="174" rx="8" fill="url(#shine)" stroke="#f8d77a" stroke-opacity=".42" stroke-width="2"/>
 <path d="M8 24h84M8 176h84" stroke="#f2c968" stroke-width="5" opacity=".78"/>
 <g fill="#e5ad43"><path d="M7 7h24L20 18 7 24Z"/><path d="M93 7h-24l11 11 13 6Z"/><path d="M7 193h24L20 182 7 176Z"/><path d="M93 193h-24l11-11 13-6Z"/></g>
 <g transform="translate(50 100)" stroke="#f7d472" stroke-width="4.4"><circle r="16" fill="#f7d472"/><path d="M0-33.6v12M0 21.6v12M-33.6 0h12M21.6 0h12M-24-24l8.8 8.8M15.2 15.2l8.8 8.8M24-24l-8.8 8.8M-15.2 15.2l-8.8 8.8"/></g>
 </svg>