<svg xmlns="http://www.w3.org/2000/svg" data-shape="2H" data-role="celestial-codex" viewBox="0 0 200 100"><defs>
<linearGradient id="gold" x1="0" x2="1"><stop stop-color="#4b2607"/><stop offset=".16" stop-color="#b66d18"/><stop offset=".34" stop-color="#ffe7a0"/><stop offset=".53" stop-color="#b87620"/><stop offset=".75" stop-color="#f1c765"/><stop offset="1" stop-color="#4a2608"/></linearGradient>
<linearGradient id="leather" x1="0" y1="0" x2="1" y2="1"><stop stop-color="#075845"/><stop offset=".38" stop-color="#075845"/><stop offset=".7" stop-color="#111827"/><stop offset="1" stop-color="#075845"/></linearGradient>
<linearGradient id="page" x1="0" y1="0" x2="0" y2="1"><stop stop-color="#fff0c4"/><stop offset=".5" stop-color="#b99454"/><stop offset="1" stop-color="#5e3b19"/></linearGradient>
<pattern id="grain" width="13" height="13" patternUnits="userSpaceOnUse"><path d="M0 3Q4 0 9 3T16 3M-3 10Q3 7 8 10T16 10" fill="none" stroke="#ffe8a0" stroke-opacity=".075"/><circle cx="4" cy="7" r=".65" fill="#08090c" opacity=".28"/></pattern>
<filter id="shadow" x="-20%" y="-25%" width="145%" height="165%"><feDropShadow dx="0" dy="5" stdDeviation="3.5" flood-color="#000" flood-opacity=".72"/></filter>
</defs>
<g filter="url(#shadow)" fill="url(#leather)" stroke="url(#gold)" stroke-width="6"><rect x="5" y="5" width="190" height="90" rx="12"/></g>
<g opacity=".34" fill="url(#grain)"><rect x="11" y="11" width="178" height="78" rx="8"/></g>
<path d="M10 88Q100 95 190 88" fill="none" stroke="url(#page)" stroke-width="5" opacity=".7"/>
<path d="M28 7V93M172 7V93" class="band"/>
<g fill="#c78a2c" stroke="#ffe7a0" stroke-opacity=".55" stroke-width=".8"><path d="M6 7h25L19 18 7 29Z"/><path d="M194 7h-25l12 11 12 11Z"/><path d="M6 93h25L19 82 7 71Z"/><path d="M194 93h-25l12-11 12-11Z"/></g>
<g transform="translate(100 50)" class="motif"><circle r="23"/><ellipse rx="31" ry="10.5" transform="rotate(-24)"/><ellipse rx="31" ry="10.5" transform="rotate(55)"/><circle r="5.5" fill="#fff0a6"/></g>
<g fill="none" stroke="#f5d67c" stroke-opacity=".34" stroke-width="1"><path d="M36 25Q100 12 164 25M36 75Q100 88 164 75"/><circle cx="40" cy="50" r="2"/><circle cx="160" cy="50" r="2"/></g>
<style>.band{fill:none;stroke:#e9b94e;stroke-width:5;opacity:.72}.motif{fill:none;stroke:#ffe07c;stroke-width:3.4;stroke-linejoin:round;filter:drop-shadow(0 1px 1px #4a2508)}</style></svg>