<svg xmlns="http://www.w3.org/2000/svg" viewBox="0 0 100 300" role="img">
<defs><linearGradient id="ivory" x1="0" y1="0" x2="1" y2="1"><stop offset="0" stop-color="#FFFDF7"/><stop offset=".55" stop-color="#F8F3E9"/><stop offset="1" stop-color="#EEE7D8"/></linearGradient><filter id="soft" x="-30%" y="-30%" width="160%" height="160%"><feDropShadow dx="0" dy="2.5" stdDeviation="2.6" flood-color="#7A6A50" flood-opacity=".28"/></filter></defs>
<g filter="url(#soft)"><rect x="3" y="3" width="94" height="294" rx="10" fill="url(#ivory)" stroke="#C8B89A" stroke-width="2"/><rect x="8" y="8" width="84" height="284" rx="6" fill="none" stroke="#fff" stroke-opacity=".75" stroke-width="1.5"/>
<g stroke="#587166" stroke-width="5" stroke-linecap="round"><path d="M32 276 45 25M60 282 65 16"/></g>
<g fill="#6E897C"><path d="M43 53q-27-17-30 6 17 7 30-6Z"/><path d="M47 87q24-18 33-1-18 10-33 1Z"/><path d="M58 124q-24-15-28 5 16 8 28-5Z"/><path d="M64 163q23-14 30 2-18 8-30-2Z"/><path d="M39 207q-25-15-29 5 17 8 29-5Z"/><path d="M59 245q24-16 31 1-18 9-31-1Z"/></g></g></svg>